<?xml version="1.0" encoding="UTF-8" standalone="no"?>
<!-- Created with Inkscape (http://www.inkscape.org/) -->

<svg
   width="21.0mm"
   height="7.099999904632568mm"
   viewBox="0 0 21.0 7.099999904632568"
   version="1.1"
   id="svg5"
   sodipodi:docname="GINP-Phelma_21x7.1mm.svg"
   inkscape:version="1.1.1 (3bf5ae0d25, 2021-09-20)"
   xmlns:inkscape="http://www.inkscape.org/namespaces/inkscape"
   xmlns:sodipodi="http://sodipodi.sourceforge.net/DTD/sodipodi-0.dtd"
   xmlns="http://www.w3.org/2000/svg"
   xmlns:svg="http://www.w3.org/2000/svg">
  <sodipodi:namedview
     id="namedview7"
     pagecolor="#ffffff"
     bordercolor="#666666"
     borderopacity="1.0"
     inkscape:pageshadow="2"
     inkscape:pageopacity="0.0"
     inkscape:pagecheckerboard="0"
     inkscape:document-units="mm"
     showgrid="true"
     inkscape:zoom="8"
     inkscape:cx="16.8125"
     inkscape:cy="17.75"
     inkscape:window-width="1852"
     inkscape:window-height="989"
     inkscape:window-x="0"
     inkscape:window-y="0"
     inkscape:window-maximized="1"
     inkscape:current-layer="g19">
    <inkscape:grid
       type="xygrid"
       id="grid67" />
  </sodipodi:namedview>
  <defs
     id="defs2" />
  <g
     inkscape:label="[fixed] BG"
     inkscape:groupmode="layer"
     sodipodi:insensitive="true"
     id="g17">
    <rect
       x="0"
       y="-2.7815501e-08"
       width="21.209169"
       height="7.1580901"
       style="fill:#ffffff;fill-opacity:1;stroke:none"
       id="rect15" />
  </g>
  <g
     inkscape:label="B.Cu"
     inkscape:groupmode="layer"
     id="g19">
    <path
       d="m 20.535462,6.8153367 c 0.125099,-0.01938 0.208259,-0.062059 0.299567,-0.1537459 0.123732,-0.1242461 0.139263,-0.1854183 0.148826,-0.5862826 l 0.0087,-0.3627425 h -0.285897 v 0.6936097 l -0.07113,0.077611 c -0.123718,0.1349998 -0.329223,0.122764 -0.446715,-0.026596 -0.04154,-0.052817 -0.04523,-0.085441 -0.04523,-0.4010741 v -0.343577 h -0.259875 l 4.74e-4,0.3627425 c 5.41e-4,0.413946 0.01906,0.4834288 0.162388,0.6092721 0.137206,0.1204697 0.29058,0.161488 0.488931,0.1307632 z m -1.343095,3.384e-4 c 0.184694,-0.029118 0.36635,-0.1550792 0.446133,-0.309353 0.01931,-0.037352 0.03981,-0.1334771 0.04554,-0.2136053 0.0091,-0.1266215 0.0028,-0.161258 -0.04773,-0.2645516 -0.101398,-0.2072573 -0.290173,-0.3198563 -0.543125,-0.3239575 -0.135487,-0.0022 -0.357329,0.052108 -0.357329,0.087471 0,0.0058 0.03017,0.054405 0.06705,0.1080107 0.04979,0.072366 0.07628,0.093508 0.102867,0.082104 0.0197,-0.00845 0.08941,-0.019278 0.154924,-0.02407 0.145638,-0.010654 0.266575,0.050548 0.328004,0.1659885 0.07769,0.1460106 0.02843,0.2981662 -0.131399,0.4058791 -0.128097,0.086327 -0.352659,0.049857 -0.448873,-0.0729 -0.02132,-0.027201 -0.04067,-0.022029 -0.135176,0.036119 -0.129099,0.079438 -0.1256,0.109107 0.02503,0.2120081 0.147452,0.1007288 0.316993,0.1387693 0.494081,0.1108531 z m -0.738005,-0.011995 c 0,-0.016733 -0.67171,-1.0910699 -0.682172,-1.0910699 -0.01046,0 -0.682173,1.0743539 -0.682173,1.0910699 0,0.00735 0.06725,0.013368 0.149449,0.013368 h 0.149448 L 17.577283,6.513847 c 0.103605,-0.1667533 0.191313,-0.3031878 0.194907,-0.3031878 0.0036,0 0.0913,0.1364345 0.194906,0.3031878 l 0.188369,0.3031877 h 0.149449 c 0.0822,0 0.149448,-0.00602 0.149448,-0.013368 z M 19.10405,6.2648114 V 6.1457019 h -0.563063 v 0.238219 H 19.10405 Z M 20.988146,3.3087307 V 1.3380102 h -0.736314 v 3.9414409 h 0.736314 z M 19.558832,3.50294 c 0,-1.5570857 -0.0041,-1.7864391 -0.03363,-1.857025 C 19.46093,1.4920607 19.312391,1.3792925 19.136536,1.3508416 18.946427,1.3200836 18.894087,1.3505979 17.875193,2.0862749 L 16.917039,2.778125 16.91691,3.2491489 c -6.5e-5,0.2590631 0.0046,0.4710238 0.01033,0.4710238 0.0057,0 0.43211,-0.3051503 0.947462,-0.6781119 l 0.936972,-0.6781119 0.0056,1.4577376 0.0056,1.4577376 h 0.736034 z m -4.374566,0.057559 c 0,-1.8852459 0.0047,-1.8143216 -0.130466,-1.9849324 -0.03834,-0.04841 -0.121647,-0.1111643 -0.198635,-0.149638 l -0.132598,-0.066261 -0.694963,2.842e-4 c -0.597956,2.436e-4 -0.722845,0.00604 -0.894607,0.041489 -0.653816,0.1349253 -1.023935,0.6012254 -1.023935,1.2901045 0,0.539478 0.242273,0.9689827 0.6599,1.1698446 0.252661,0.1215255 0.489073,0.1614001 0.958899,0.1617385 l 0.395227,2.842e-4 V 3.3087557 L 13.836142,3.3085798 C 13.380589,3.3083226 13.189886,3.2623477 13.059021,3.1212327 12.96058,3.0151035 12.925009,2.9194843 12.915291,2.7348511 c -0.01652,-0.3138873 0.108505,-0.5200144 0.365808,-0.6031136 0.08995,-0.029037 0.205559,-0.035733 0.617116,-0.035733 h 0.506438 v 3.1834715 h 0.779626 z m 4.114555,-2.66845835 c 0.170009,-0.0737261 0.260031,-0.21916821 0.260031,-0.42011808 0,-0.15771178 -0.03504,-0.24743641 -0.132766,-0.33992221 -0.09682,-0.09162632 -0.16607,-0.11502186 -0.340491,-0.11502186 -0.148697,0 -0.338853,0.0678518 -0.338853,0.12090966 0,0.0129024 0.03283,0.0608494 0.07296,0.10654884 0.06076,0.0691985 0.07886,0.0788424 0.108281,0.0577004 0.114623,-0.0823818 0.22396,-0.080162 0.30509,0.006193 0.05805,0.061788 0.07784,0.19785709 0.03952,0.27171173 -0.06315,0.121715 -0.298451,0.16241525 -0.298451,0.0516164 0,-0.0445524 0.01037,-0.0516164 0.0758,-0.0516164 h 0.0758 V 0.36347941 h -0.389813 v 0.4940201 l 0.101311,0.0345201 c 0.126872,0.0432286 0.361937,0.0432401 0.461596,2.166e-5 z m -3.924048,-0.0115908 c 0.210864,-0.10437645 0.3049,-0.39082798 0.201701,-0.61442895 -0.07856,-0.17021828 -0.219892,-0.24904709 -0.446505,-0.24904709 -0.305049,0 -0.483287,0.19347169 -0.461075,0.50050344 0.01148,0.15869308 0.09355,0.28565972 0.231844,0.35867518 0.12876,0.0679804 0.341492,0.0699091 0.474035,0.004301 z M 15.005798,0.63387289 c -0.115686,-0.11568509 -0.08412,-0.30929213 0.06026,-0.36961837 0.0715,-0.0298741 0.0851,-0.0293402 0.157787,0.006193 0.05629,0.0275177 0.08663,0.0608081 0.103781,0.11387814 0.06968,0.21557462 -0.169975,0.40139894 -0.321826,0.24954789 z M 18.476012,0.47175541 V 0.03863003 h -0.250124 c -0.280333,0 -0.35544,0.02367098 -0.410027,0.12922702 -0.01807,0.0349397 -0.03285,0.10396363 -0.03285,0.15339406 0,0.0729342 0.01357,0.10343575 0.07202,0.16188061 l 0.07202,0.0720206 -0.20629,0.3389003 0.131711,0.006529 c 0.07244,0.003591 0.143209,0.002118 0.157258,-0.003273 0.01405,-0.005392 0.0638,-0.0814216 0.110562,-0.16895349 l 0.08502,-0.15914651 0.01265,0.33567217 h 0.258054 z M 18.075993,0.35577932 c -0.0623,-0.0455553 -0.02747,-0.1005866 0.06367,-0.1005866 0.07054,0 0.07647,0.005046 0.07647,0.0649688 0,0.053428 -0.0089,0.0649688 -0.05,0.0649688 -0.0275,0 -0.06807,-0.013209 -0.09014,-0.029353 z M 17.50148,0.47175541 V 0.03863003 h -0.606376 v 0.21656269 h 0.184078 c 0.181913,0 0.184079,6.3683e-4 0.184079,0.0541407 0,0.0532386 -0.0029,0.0541407 -0.173251,0.0541407 h -0.17325 v 0.19490637 h 0.346501 V 0.6883181 h -0.389813 v 0.21656269 h 0.628032 z m -0.866251,0 V 0.03863003 l -0.29236,2.3687e-4 -0.270324,0.44371665 -3.79e-4,-0.44395352 h -0.259875 v 0.86625076 l 0.292359,-0.001386 0.259875,-0.43268549 0.0062,0.21703642 0.0062,0.21703642 h 0.258359 z m -2.187283,0 V 0.03863003 h -0.239295 c -0.330624,0 -0.410393,0.04522235 -0.410393,0.23265601 0,0.0461502 0.01392,0.10282667 0.03093,0.12594474 0.02742,0.0372698 0.026,0.047323 -0.0126,0.088635 -0.05441,0.0582337 -0.07252,0.19588095 -0.03511,0.26676463 0.01553,0.02942 0.06121,0.075709 0.101507,0.10286728 0.06558,0.0441957 0.09906,0.0493763 0.319111,0.0493763 h 0.245847 z M 14.036477,0.6558337 c -0.04013,-0.048353 0.01031,-0.0974532 0.100106,-0.0974532 0.06683,0 0.07314,0.005605 0.07314,0.0649688 0,0.0593639 -0.0063,0.0649688 -0.07314,0.0649688 -0.04023,0 -0.08528,-0.014618 -0.100106,-0.0324844 z m 0.03121,-0.32338901 c -0.05191,-0.038316 -0.02598,-0.0707213 0.07233,-0.0903811 0.06661,-0.0133213 0.06971,-0.010933 0.06971,0.0537346 0,0.0562562 -0.0084,0.0676758 -0.05,0.0676758 -0.0275,0 -0.06892,-0.0139622 -0.09204,-0.0310267 z M 13.53838,0.47175541 V 0.03863003 H 13.278504 V 0.6883181 H 12.95366 v 0.21656269 h 0.58472 z m -0.779626,0 V 0.03863003 h -0.606376 v 0.21656269 h 0.173251 c 0.17036,0 0.17325,9.0239e-4 0.17325,0.0541407 0,0.0529374 -0.0036,0.0541407 -0.162422,0.0541407 h -0.162422 v 0.19490637 h 0.324844 V 0.6883181 h -0.368157 v 0.21656269 h 0.628032 z"
       fill="#292d46"
       id="path6"
       style="stroke-width:0.0676758" />
    <path
       d="M 18.068129,7.097545 C 18.067588,7.0667 17.77604,6.6481774 17.77604,6.6481774 c -0.01954,0 -0.291574,0.4185209 -0.292089,0.4493676 -1.35e-4,0.00893 0.131292,0.016242 0.292089,0.016242 0.160798,0 0.292238,-0.00731 0.292089,-0.016242 z"
       fill="#e84f0e"
       id="path2"
       style="stroke-width:0.0676758" />
    <path
       d="m 6.3397029,5.3215956 c 0.143575,-0.034589 0.315674,-0.1504028 0.391201,-0.2632523 0.111049,-0.1659343 0.120429,-0.2786485 0.112247,-1.3486441 l -0.0073,-0.9528758 -0.06066,-0.1235287 c -0.07006,-0.142681 -0.151032,-0.2181193 -0.31832,-0.2965894 -0.102245,-0.047959 -0.148237,-0.055795 -0.324844,-0.05534 -0.25304,6.497e-4 -0.385144,0.051516 -0.52662,0.2027636 -0.149374,0.1596879 -0.170428,0.251788 -0.162347,0.7101226 0.0089,0.5049227 -0.01888,0.4657993 0.516549,0.7274476 l 0.408085,0.1994272 0.0013,0.2880216 c 0.0014,0.3080333 -0.01673,0.38046 -0.111699,0.4469786 -0.02654,0.018589 -0.08604,0.033799 -0.132204,0.033799 -0.06598,0 -0.09739,-0.014391 -0.146776,-0.067259 -0.06099,-0.065291 -0.06283,-0.073841 -0.06283,-0.2923596 l 1e-6,-0.2251034 h -0.476438 v 0.2590631 c 0,0.2056195 0.0089,0.2828309 0.04311,0.3742745 0.05183,0.1385324 0.186338,0.2776198 0.329547,0.3407681 0.118927,0.052443 0.394259,0.074471 0.528027,0.042247 z M 6.0911159,3.4835198 5.9154639,3.3952028 V 3.1230783 c 0,-0.2718945 4.3e-5,-0.2721787 0.0633,-0.3354286 0.08829,-0.08829 0.211149,-0.088351 0.309929,-1.489e-4 l 0.07072,0.063143 0.0068,0.3808051 0.0068,0.3808052 -0.05314,-0.020203 c -0.02923,-0.011111 -0.132178,-0.059944 -0.228785,-0.1085182 z m -5.19412,1.8390233 c 0.190859,-0.0482 0.344781,-0.1661375 0.433626,-0.3322343 0.04472,-0.083607 0.04789,-0.1175123 0.04789,-0.5118324 0,-0.4073138 -0.0019,-0.4260464 -0.05394,-0.5279121 C 1.2402319,3.7854082 1.1209889,3.69768 0.7724179,3.544313 L 0.4591599,3.4064844 0.4587539,3.1899217 c -2.03e-4,-0.1191095 0.0096,-0.252661 0.02188,-0.2967856 0.04745,-0.1708409 0.246658,-0.2278172 0.368955,-0.1055202 0.06115,0.061153 0.0633,0.070349 0.0633,0.2707033 v 0.2073994 h 0.480789 l -0.0078,-0.2761174 c -0.0073,-0.2566336 -0.01224,-0.2841505 -0.07064,-0.3899076 -0.06922,-0.1253492 -0.15512,-0.2004084 -0.310673,-0.2714613 -0.08179,-0.037356 -0.14419,-0.046927 -0.308697,-0.047349 -0.190548,-4.873e-4 -0.217334,0.00496 -0.353119,0.071804 -0.108308,0.05332 -0.166191,0.098861 -0.220197,0.1732502 -0.12815,0.1765121 -0.130052,0.1955832 -0.130052,1.3033013 V 4.836729 l 0.07053,0.1432427 c 0.07563,0.1536106 0.157062,0.2302332 0.322414,0.3033705 0.114413,0.050612 0.384385,0.071283 0.511541,0.039173 z M 0.5592389,4.8456449 c -0.03097,-0.024363 -0.06634,-0.080399 -0.0786,-0.1245235 -0.02345,-0.084432 -0.03193,-0.8056809 -0.0095,-0.8056809 0.04804,0 0.376893,0.1769453 0.405953,0.2184306 0.02893,0.041302 0.03578,0.1064338 0.03578,0.3402876 v 0.289206 l -0.0633,0.063303 c -0.0786,0.078605 -0.204144,0.086821 -0.290356,0.019005 z m 16.1014361,0.374376 c 0.05551,-0.032658 0.505965,-0.3517384 1.000993,-0.7090397 l 0.900089,-0.6496881 5.95e-4,-0.4710239 c 3.32e-4,-0.2590631 -0.0047,-0.4710238 -0.01116,-0.4710238 -0.0065,0 -0.435264,0.3064497 -0.952875,0.681022 l -0.941101,0.681022 V 1.3384055 h -0.736313 l 4.74e-4,1.7920562 c 4.53e-4,1.6981222 0.0026,1.7965905 0.04058,1.8786813 0.08273,0.1786845 0.239979,0.2708117 0.461753,0.2705274 0.109134,-1.489e-4 0.156013,-0.011922 0.236973,-0.059555 z M 10.615125,3.3307145 V 1.3816503 h -0.418684 c -0.2302741,0 -0.4742791,0.011165 -0.5422321,0.024811 -0.256018,0.051416 -0.447412,0.2270592 -0.522336,0.4793615 -0.04685,0.1577592 -0.04722,1.2500405 -4.74e-4,1.4295168 0.05837,0.2240882 0.17055,0.3536333 0.390504,0.4509241 0.08114,0.035894 0.164161,0.049578 0.350723,0.057811 l 0.2444111,0.010786 v 1.4449469 h 0.498094 z m -0.8801921,0.00791 c -0.13211,-0.062691 -0.137673,-0.092303 -0.137673,-0.7334031 0,-0.6411 0.0056,-0.6707014 0.137673,-0.733403 0.04728,-0.022437 0.130919,-0.035405 0.228345,-0.035405 H 10.11701 v 1.537595 H 9.9632779 c -0.09743,0 -0.18106,-0.012967 -0.228345,-0.035405 z M 8.6877169,3.2224298 V 1.1650842 h -0.476438 v 0.5847193 c 0,0.3215956 -0.0037,0.5847193 -0.0082,0.5847193 -0.0045,0 -0.04592,-0.015785 -0.09204,-0.035076 -0.192491,-0.080521 -0.514452,0.015243 -0.678721,0.201877 -0.153252,0.1741096 -0.152264,0.1640259 -0.152264,1.5479495 V 5.279755 h 0.476455 V 4.0875774 c 0,-1.2749451 7.24e-4,-1.2840814 0.107083,-1.3409968 0.08067,-0.043172 0.191035,-0.026218 0.266149,0.040884 l 0.07072,0.063182 0.0059,1.2145106 0.0059,1.2145106 h 0.475467 z m -3.681566,0 V 1.1650842 h -0.476438 v 4.1146911 h 0.476438 z m -0.93616,0.806696 c -0.0077,-1.3933779 -0.0041,-1.3579157 -0.159194,-1.5391516 -0.197877,-0.2311739 -0.63844,-0.2896729 -0.890952,-0.1182974 -0.06306,0.042793 -0.08719,0.049116 -0.113445,0.029725 -0.118406,-0.087444 -0.231912,-0.1205781 -0.412336,-0.1203548 -0.23474,2.91e-4 -0.37135,0.056645 -0.509342,0.2101335 -0.16433,0.1827789 -0.162002,0.1603444 -0.162002,1.5581686 v 1.2304824 h 0.476438 V 2.8510133 l 0.0633,-0.063303 c 0.06764,-0.067639 0.162293,-0.083174 0.243145,-0.039904 0.102083,0.054634 0.105026,0.092459 0.105026,1.3510805 v 1.180944 h 0.476441 V 2.8510126 l 0.0633,-0.063303 c 0.115076,-0.115076 0.28231,-0.072176 0.325548,0.083512 0.01411,0.050821 0.02242,0.5103909 0.0225,1.2446264 l 1.36e-4,1.1640245 h 0.478407 z M 20.963234,0.71571666 C 20.955635,0.55769358 20.943621,0.50695023 20.890895,0.41017378 20.781071,0.20860806 20.582307,0.07199761 20.360655,0.04574615 L 20.252394,0.03292428 v 0.87227391 h 0.719936 z"
       fill="#bc1c1b"
       id="path4"
       style="fill:#be141e;fill-opacity:1;stroke-width:0.0676758" />
  </g>
</svg>
